<svg width="22" height="23" xmlns="http://www.w3.org/2000/svg"><path d="M17.44 23h-1.11c-4.939-.593-8.568-2.864-11.189-5.728C2.521 14.408.403 10.753 0 5.716V4.333c.1-.888.504-1.481 1.109-2.074.605-.69 1.613-1.481 2.52-1.58.706 0 1.815.494 2.218 1.087.403.493.605 1.58.806 2.37.202.889.605 1.975.504 2.765-.201 1.186-1.814 1.68-2.217 2.568 1.612 3.655 4.133 6.42 7.56 8.198.806-.494 1.613-1.877 2.823-1.877.403 0 1.008.198 1.41.297.505.098.908.296 1.311.493.706.297 2.017.593 2.42 1.186.403.592.705 1.58.605 2.172-.303 1.284-2.42 2.667-3.63 3.062Z"/></svg>